<?xml version="1.0" encoding="UTF-8" standalone="no"?>
<!DOCTYPE svg PUBLIC "-//W3C//DTD SVG 1.1//EN"
 "http://www.w3.org/Graphics/SVG/1.1/DTD/svg11.dtd">
<!-- Generated by graphviz version 2.40.1 (20161225.0304)
 -->
<!-- Title: dependencies Pages: 1 -->
<svg width="902pt" height="211pt"
 viewBox="0.00 0.00 902.00 211.00" xmlns="http://www.w3.org/2000/svg" xmlns:xlink="http://www.w3.org/1999/xlink">
<g id="graph0" class="graph" transform="scale(1 1) rotate(0) translate(4 207)">
<title>dependencies</title>
<polygon fill="#ffffff" stroke="transparent" points="-4,4 -4,-207 898,-207 898,4 -4,4"/>
<text text-anchor="start" x="426.0091" y="-42.4" font-family="sans-serif" font-weight="bold" font-size="14.00" fill="#000000">Legend</text>
<polygon fill="#ffffb3" stroke="transparent" points="213,-10 213,-30 233,-30 233,-10 213,-10"/>
<text text-anchor="start" x="236.629" y="-15.4" font-family="sans-serif" font-size="14.00" fill="#000000"> &#160;Declarations</text>
<polygon fill="#8dd3c7" stroke="transparent" points="326,-10 326,-30 346,-30 346,-10 326,-10"/>
<text text-anchor="start" x="349.7251" y="-15.4" font-family="sans-serif" font-size="14.00" fill="#000000"> &#160;Module</text>
<polygon fill="#80b1d3" stroke="transparent" points="412,-10 412,-30 432,-30 432,-10 412,-10"/>
<text text-anchor="start" x="435.7812" y="-15.4" font-family="sans-serif" font-size="14.00" fill="#000000"> &#160;Bootstrap</text>
<polygon fill="#fdb462" stroke="transparent" points="509,-10 509,-30 529,-30 529,-10 509,-10"/>
<text text-anchor="start" x="532.6732" y="-15.4" font-family="sans-serif" font-size="14.00" fill="#000000"> &#160;Providers</text>
<polygon fill="#fb8072" stroke="transparent" points="605,-10 605,-30 625,-30 625,-10 605,-10"/>
<text text-anchor="start" x="628.7258" y="-15.4" font-family="sans-serif" font-size="14.00" fill="#000000"> &#160;Exports</text>
<g id="clust1" class="cluster">
<title>cluster_TasksModule</title>
<polygon fill="none" stroke="#000000" stroke-dasharray="1,5" points="8,-70 8,-195 886,-195 886,-70 8,-70"/>
</g>
<g id="clust2" class="cluster">
<title>cluster_TasksModule_declarations</title>
<polygon fill="none" stroke="#000000" points="138,-78 138,-130 878,-130 878,-78 138,-78"/>
</g>
<g id="clust8" class="cluster">
<title>cluster_TasksModule_imports</title>
<polygon fill="none" stroke="#000000" points="16,-78 16,-130 130,-130 130,-78 16,-78"/>
</g>
<!-- FilterByAlreadySentPipe -->
<g id="node1" class="node">
<title>FilterByAlreadySentPipe</title>
<polygon fill="#ffffb3" stroke="#000000" points="869.5295,-122 712.4705,-122 712.4705,-86 869.5295,-86 869.5295,-122"/>
<text text-anchor="middle" x="791" y="-99.8" font-family="Times,serif" font-size="14.00" fill="#000000">FilterByAlreadySentPipe</text>
</g>
<!-- TasksModule -->
<g id="node6" class="node">
<title>TasksModule</title>
<polygon fill="#8dd3c7" stroke="#000000" points="458.2064,-187 455.2064,-191 434.2064,-191 431.2064,-187 365.7936,-187 365.7936,-151 458.2064,-151 458.2064,-187"/>
<text text-anchor="middle" x="412" y="-164.8" font-family="Times,serif" font-size="14.00" fill="#000000">TasksModule</text>
</g>
<!-- FilterByAlreadySentPipe&#45;&gt;TasksModule -->
<g id="edge1" class="edge">
<title>FilterByAlreadySentPipe&#45;&gt;TasksModule</title>
<path fill="none" stroke="#000000" d="M791,-122.2843C791,-143.3211 791,-175 791,-175 791,-175 468.4728,-175 468.4728,-175"/>
<polygon fill="#000000" stroke="#000000" points="468.4729,-171.5001 458.4728,-175 468.4728,-178.5001 468.4729,-171.5001"/>
</g>
<!-- NewTaskComponent -->
<g id="node2" class="node">
<title>NewTaskComponent</title>
<polygon fill="#ffffb3" stroke="#000000" points="694.472,-122 559.528,-122 559.528,-86 694.472,-86 694.472,-122"/>
<text text-anchor="middle" x="627" y="-99.8" font-family="Times,serif" font-size="14.00" fill="#000000">NewTaskComponent</text>
</g>
<!-- NewTaskComponent&#45;&gt;TasksModule -->
<g id="edge2" class="edge">
<title>NewTaskComponent&#45;&gt;TasksModule</title>
<path fill="none" stroke="#000000" d="M627,-122.0225C627,-139.3734 627,-163 627,-163 627,-163 468.1229,-163 468.1229,-163"/>
<polygon fill="#000000" stroke="#000000" points="468.1229,-159.5001 458.1229,-163 468.1229,-166.5001 468.1229,-159.5001"/>
</g>
<!-- SalaryComponent -->
<g id="node3" class="node">
<title>SalaryComponent</title>
<polygon fill="#ffffb3" stroke="#000000" points="541.5954,-122 424.4046,-122 424.4046,-86 541.5954,-86 541.5954,-122"/>
<text text-anchor="middle" x="483" y="-99.8" font-family="Times,serif" font-size="14.00" fill="#000000">SalaryComponent</text>
</g>
<!-- SalaryComponent&#45;&gt;TasksModule -->
<g id="edge3" class="edge">
<title>SalaryComponent&#45;&gt;TasksModule</title>
<path fill="none" stroke="#000000" d="M441.2777,-122.1061C441.2777,-122.1061 441.2777,-140.991 441.2777,-140.991"/>
<polygon fill="#000000" stroke="#000000" points="437.7778,-140.9909 441.2777,-150.991 444.7778,-140.991 437.7778,-140.9909"/>
</g>
<!-- TableStyleDirective -->
<g id="node4" class="node">
<title>TableStyleDirective</title>
<polygon fill="#ffffb3" stroke="#000000" points="406.2339,-122 277.7661,-122 277.7661,-86 406.2339,-86 406.2339,-122"/>
<text text-anchor="middle" x="342" y="-99.8" font-family="Times,serif" font-size="14.00" fill="#000000">TableStyleDirective</text>
</g>
<!-- TableStyleDirective&#45;&gt;TasksModule -->
<g id="edge4" class="edge">
<title>TableStyleDirective&#45;&gt;TasksModule</title>
<path fill="none" stroke="#000000" d="M386.1319,-122.1061C386.1319,-122.1061 386.1319,-140.991 386.1319,-140.991"/>
<polygon fill="#000000" stroke="#000000" points="382.6319,-140.9909 386.1319,-150.991 389.6319,-140.991 382.6319,-140.9909"/>
</g>
<!-- TasksComponent -->
<g id="node5" class="node">
<title>TasksComponent</title>
<polygon fill="#ffffb3" stroke="#000000" points="259.9888,-122 146.0112,-122 146.0112,-86 259.9888,-86 259.9888,-122"/>
<text text-anchor="middle" x="203" y="-99.8" font-family="Times,serif" font-size="14.00" fill="#000000">TasksComponent</text>
</g>
<!-- TasksComponent&#45;&gt;TasksModule -->
<g id="edge5" class="edge">
<title>TasksComponent&#45;&gt;TasksModule</title>
<path fill="none" stroke="#000000" d="M203,-122.0225C203,-139.3734 203,-163 203,-163 203,-163 355.8753,-163 355.8753,-163"/>
<polygon fill="#000000" stroke="#000000" points="355.8754,-166.5001 365.8753,-163 355.8753,-159.5001 355.8754,-166.5001"/>
</g>
<!-- SharedModule -->
<g id="node7" class="node">
<title>SharedModule</title>
<polygon fill="#8dd3c7" stroke="#000000" points="122.4231,-122 119.4231,-126 98.4231,-126 95.4231,-122 23.5769,-122 23.5769,-86 122.4231,-86 122.4231,-122"/>
<text text-anchor="middle" x="73" y="-99.8" font-family="Times,serif" font-size="14.00" fill="#000000">SharedModule</text>
</g>
<!-- SharedModule&#45;&gt;TasksModule -->
<g id="edge6" class="edge">
<title>SharedModule&#45;&gt;TasksModule</title>
<path fill="none" stroke="#000000" d="M73,-122.2843C73,-143.3211 73,-175 73,-175 73,-175 355.5743,-175 355.5743,-175"/>
<polygon fill="#000000" stroke="#000000" points="355.5743,-178.5001 365.5743,-175 355.5743,-171.5001 355.5743,-178.5001"/>
</g>
</g>
</svg>
