<?xml version="1.0" encoding="UTF-8" standalone="no"?>
<!DOCTYPE svg PUBLIC "-//W3C//DTD SVG 1.1//EN"
 "http://www.w3.org/Graphics/SVG/1.1/DTD/svg11.dtd">
<!-- Generated by graphviz version 2.40.1 (20161225.0304)
 -->
<!-- Title: dependencies Pages: 1 -->
<svg width="1559pt" height="284pt"
 viewBox="0.00 0.00 1559.00 284.00" xmlns="http://www.w3.org/2000/svg" xmlns:xlink="http://www.w3.org/1999/xlink">
<g id="graph0" class="graph" transform="scale(1 1) rotate(0) translate(4 280)">
<title>dependencies</title>
<polygon fill="#ffffff" stroke="transparent" points="-4,4 -4,-280 1555,-280 1555,4 -4,4"/>
<text text-anchor="start" x="754.5091" y="-42.4" font-family="sans-serif" font-weight="bold" font-size="14.00" fill="#000000">Legend</text>
<polygon fill="#ffffb3" stroke="transparent" points="541.5,-10 541.5,-30 561.5,-30 561.5,-10 541.5,-10"/>
<text text-anchor="start" x="565.129" y="-15.4" font-family="sans-serif" font-size="14.00" fill="#000000"> &#160;Declarations</text>
<polygon fill="#8dd3c7" stroke="transparent" points="654.5,-10 654.5,-30 674.5,-30 674.5,-10 654.5,-10"/>
<text text-anchor="start" x="678.2251" y="-15.4" font-family="sans-serif" font-size="14.00" fill="#000000"> &#160;Module</text>
<polygon fill="#80b1d3" stroke="transparent" points="740.5,-10 740.5,-30 760.5,-30 760.5,-10 740.5,-10"/>
<text text-anchor="start" x="764.2812" y="-15.4" font-family="sans-serif" font-size="14.00" fill="#000000"> &#160;Bootstrap</text>
<polygon fill="#fdb462" stroke="transparent" points="837.5,-10 837.5,-30 857.5,-30 857.5,-10 837.5,-10"/>
<text text-anchor="start" x="861.1732" y="-15.4" font-family="sans-serif" font-size="14.00" fill="#000000"> &#160;Providers</text>
<polygon fill="#fb8072" stroke="transparent" points="933.5,-10 933.5,-30 953.5,-30 953.5,-10 933.5,-10"/>
<text text-anchor="start" x="957.2258" y="-15.4" font-family="sans-serif" font-size="14.00" fill="#000000"> &#160;Exports</text>
<g id="clust1" class="cluster">
<title>cluster_SharedModule</title>
<polygon fill="none" stroke="#000000" stroke-dasharray="1,5" points="8,-70 8,-268 1543,-268 1543,-70 8,-70"/>
</g>
<g id="clust2" class="cluster">
<title>cluster_SharedModule_declarations</title>
<polygon fill="none" stroke="#000000" points="32,-78 32,-130 1521,-130 1521,-78 32,-78"/>
</g>
<g id="clust13" class="cluster">
<title>cluster_SharedModule_exports</title>
<polygon fill="none" stroke="#000000" points="16,-208 16,-260 1535,-260 1535,-208 16,-208"/>
</g>
<!-- AreYouSureYouWannaExitComponent -->
<g id="node1" class="node">
<title>AreYouSureYouWannaExitComponent</title>
<polygon fill="#ffffb3" stroke="#000000" points="1512.6629,-122 1273.3371,-122 1273.3371,-86 1512.6629,-86 1512.6629,-122"/>
<text text-anchor="middle" x="1393" y="-99.8" font-family="Times,serif" font-size="14.00" fill="#000000">AreYouSureYouWannaExitComponent</text>
</g>
<!-- SharedModule -->
<g id="node10" class="node">
<title>SharedModule</title>
<polygon fill="#8dd3c7" stroke="#000000" points="809.4231,-187 806.4231,-191 785.4231,-191 782.4231,-187 710.5769,-187 710.5769,-151 809.4231,-151 809.4231,-187"/>
<text text-anchor="middle" x="760" y="-164.8" font-family="Times,serif" font-size="14.00" fill="#000000">SharedModule</text>
</g>
<!-- AreYouSureYouWannaExitComponent&#45;&gt;SharedModule -->
<g id="edge1" class="edge">
<title>AreYouSureYouWannaExitComponent&#45;&gt;SharedModule</title>
<path fill="none" stroke="#000000" d="M1279.0436,-122.2222C1279.0436,-140.8285 1279.0436,-167 1279.0436,-167 1279.0436,-167 819.2983,-167 819.2983,-167"/>
<polygon fill="#000000" stroke="#000000" points="819.2983,-163.5001 809.2983,-167 819.2983,-170.5001 819.2983,-163.5001"/>
</g>
<!-- ClickOutsideDirective -->
<g id="node2" class="node">
<title>ClickOutsideDirective</title>
<polygon fill="#ffffb3" stroke="#000000" points="1254.9622,-122 1113.0378,-122 1113.0378,-86 1254.9622,-86 1254.9622,-122"/>
<text text-anchor="middle" x="1184" y="-99.8" font-family="Times,serif" font-size="14.00" fill="#000000">ClickOutsideDirective</text>
</g>
<!-- ClickOutsideDirective&#45;&gt;SharedModule -->
<g id="edge2" class="edge">
<title>ClickOutsideDirective&#45;&gt;SharedModule</title>
<path fill="none" stroke="#000000" d="M1117.1439,-122.0225C1117.1439,-139.3734 1117.1439,-163 1117.1439,-163 1117.1439,-163 819.2844,-163 819.2844,-163"/>
<polygon fill="#000000" stroke="#000000" points="819.2844,-159.5001 809.2844,-163 819.2843,-166.5001 819.2844,-159.5001"/>
</g>
<!-- FilterByMonthPipe -->
<g id="node3" class="node">
<title>FilterByMonthPipe</title>
<polygon fill="#ffffb3" stroke="#000000" points="1095.3892,-122 970.6108,-122 970.6108,-86 1095.3892,-86 1095.3892,-122"/>
<text text-anchor="middle" x="1033" y="-99.8" font-family="Times,serif" font-size="14.00" fill="#000000">FilterByMonthPipe</text>
</g>
<!-- FilterByMonthPipe&#45;&gt;SharedModule -->
<g id="edge3" class="edge">
<title>FilterByMonthPipe&#45;&gt;SharedModule</title>
<path fill="none" stroke="#000000" d="M1055.2315,-122.0091C1055.2315,-138.0494 1055.2315,-159 1055.2315,-159 1055.2315,-159 819.4151,-159 819.4151,-159"/>
<polygon fill="#000000" stroke="#000000" points="819.4152,-155.5001 809.4151,-159 819.4151,-162.5001 819.4152,-155.5001"/>
</g>
<!-- FilterByTypePipe -->
<g id="node4" class="node">
<title>FilterByTypePipe</title>
<polygon fill="#ffffb3" stroke="#000000" points="952.3216,-122 835.6784,-122 835.6784,-86 952.3216,-86 952.3216,-122"/>
<text text-anchor="middle" x="894" y="-99.8" font-family="Times,serif" font-size="14.00" fill="#000000">FilterByTypePipe</text>
</g>
<!-- FilterByTypePipe&#45;&gt;SharedModule -->
<g id="edge4" class="edge">
<title>FilterByTypePipe&#45;&gt;SharedModule</title>
<path fill="none" stroke="#000000" d="M913.8035,-122.1243C913.8035,-136.7832 913.8035,-155 913.8035,-155 913.8035,-155 819.511,-155 819.511,-155"/>
<polygon fill="#000000" stroke="#000000" points="819.511,-151.5001 809.511,-155 819.511,-158.5001 819.511,-151.5001"/>
</g>
<!-- FilterByYearPipe -->
<g id="node5" class="node">
<title>FilterByYearPipe</title>
<polygon fill="#ffffb3" stroke="#000000" points="817.2507,-122 702.7493,-122 702.7493,-86 817.2507,-86 817.2507,-122"/>
<text text-anchor="middle" x="760" y="-99.8" font-family="Times,serif" font-size="14.00" fill="#000000">FilterByYearPipe</text>
</g>
<!-- FilterByYearPipe&#45;&gt;SharedModule -->
<g id="edge5" class="edge">
<title>FilterByYearPipe&#45;&gt;SharedModule</title>
<path fill="none" stroke="#000000" d="M760,-122.1061C760,-122.1061 760,-140.991 760,-140.991"/>
<polygon fill="#000000" stroke="#000000" points="756.5001,-140.9909 760,-150.991 763.5001,-140.991 756.5001,-140.9909"/>
</g>
<!-- FilterDatePipe -->
<g id="node6" class="node">
<title>FilterDatePipe</title>
<polygon fill="#ffffb3" stroke="#000000" points="684.6444,-122 587.3556,-122 587.3556,-86 684.6444,-86 684.6444,-122"/>
<text text-anchor="middle" x="636" y="-99.8" font-family="Times,serif" font-size="14.00" fill="#000000">FilterDatePipe</text>
</g>
<!-- FilterDatePipe&#45;&gt;SharedModule -->
<g id="edge6" class="edge">
<title>FilterDatePipe&#45;&gt;SharedModule</title>
<path fill="none" stroke="#000000" d="M650.774,-122.1243C650.774,-136.7832 650.774,-155 650.774,-155 650.774,-155 700.5003,-155 700.5003,-155"/>
<polygon fill="#000000" stroke="#000000" points="700.5003,-158.5001 710.5003,-155 700.5003,-151.5001 700.5003,-158.5001"/>
</g>
<!-- HeaderComponent -->
<g id="node7" class="node">
<title>HeaderComponent</title>
<polygon fill="#ffffb3" stroke="#000000" points="568.7437,-122 447.2563,-122 447.2563,-86 568.7437,-86 568.7437,-122"/>
<text text-anchor="middle" x="508" y="-99.8" font-family="Times,serif" font-size="14.00" fill="#000000">HeaderComponent</text>
</g>
<!-- HeaderComponent&#45;&gt;SharedModule -->
<g id="edge7" class="edge">
<title>HeaderComponent&#45;&gt;SharedModule</title>
<path fill="none" stroke="#000000" d="M524.7906,-122.0091C524.7906,-138.0494 524.7906,-159 524.7906,-159 524.7906,-159 700.6924,-159 700.6924,-159"/>
<polygon fill="#000000" stroke="#000000" points="700.6924,-162.5001 710.6924,-159 700.6924,-155.5001 700.6924,-162.5001"/>
</g>
<!-- LoadingSpinnerLoginComponent -->
<g id="node8" class="node">
<title>LoadingSpinnerLoginComponent</title>
<polygon fill="#ffffb3" stroke="#000000" points="429.4818,-122 224.5182,-122 224.5182,-86 429.4818,-86 429.4818,-122"/>
<text text-anchor="middle" x="327" y="-99.8" font-family="Times,serif" font-size="14.00" fill="#000000">LoadingSpinnerLoginComponent</text>
</g>
<!-- LoadingSpinnerLoginComponent&#45;&gt;SharedModule -->
<g id="edge8" class="edge">
<title>LoadingSpinnerLoginComponent&#45;&gt;SharedModule</title>
<path fill="none" stroke="#000000" d="M424.8659,-122.0225C424.8659,-139.3734 424.8659,-163 424.8659,-163 424.8659,-163 700.5498,-163 700.5498,-163"/>
<polygon fill="#000000" stroke="#000000" points="700.5498,-166.5001 710.5498,-163 700.5498,-159.5001 700.5498,-166.5001"/>
</g>
<!-- ScrollTopBottomDirective -->
<g id="node9" class="node">
<title>ScrollTopBottomDirective</title>
<polygon fill="#ffffb3" stroke="#000000" points="206.0828,-122 39.9172,-122 39.9172,-86 206.0828,-86 206.0828,-122"/>
<text text-anchor="middle" x="123" y="-99.8" font-family="Times,serif" font-size="14.00" fill="#000000">ScrollTopBottomDirective</text>
</g>
<!-- ScrollTopBottomDirective&#45;&gt;SharedModule -->
<g id="edge9" class="edge">
<title>ScrollTopBottomDirective&#45;&gt;SharedModule</title>
<path fill="none" stroke="#000000" d="M199.9164,-122.2222C199.9164,-140.8285 199.9164,-167 199.9164,-167 199.9164,-167 700.7872,-167 700.7872,-167"/>
<polygon fill="#000000" stroke="#000000" points="700.7872,-170.5001 710.7872,-167 700.7872,-163.5001 700.7872,-170.5001"/>
</g>
<!-- AreYouSureYouWannaExitComponent  -->
<g id="node11" class="node">
<title>AreYouSureYouWannaExitComponent </title>
<polygon fill="#fb8072" stroke="#000000" points="1527.163,-252 1284.837,-252 1284.837,-216 1527.163,-216 1527.163,-252"/>
<text text-anchor="middle" x="1406" y="-229.8" font-family="Times,serif" font-size="14.00" fill="#000000">AreYouSureYouWannaExitComponent </text>
</g>
<!-- SharedModule&#45;&gt;AreYouSureYouWannaExitComponent  -->
<g id="edge10" class="edge">
<title>SharedModule&#45;&gt;AreYouSureYouWannaExitComponent </title>
<path fill="none" stroke="#000000" stroke-dasharray="5,2" d="M809.3156,-171C959.1109,-171 1398.625,-171 1398.625,-171 1398.625,-171 1398.625,-205.7778 1398.625,-205.7778"/>
<polygon fill="#000000" stroke="#000000" points="1395.1251,-205.7778 1398.625,-215.7778 1402.1251,-205.7778 1395.1251,-205.7778"/>
</g>
<!-- ClickOutsideDirective  -->
<g id="node12" class="node">
<title>ClickOutsideDirective </title>
<polygon fill="#fb8072" stroke="#000000" points="1266.9629,-252 1121.0371,-252 1121.0371,-216 1266.9629,-216 1266.9629,-252"/>
<text text-anchor="middle" x="1194" y="-229.8" font-family="Times,serif" font-size="14.00" fill="#000000">ClickOutsideDirective </text>
</g>
<!-- SharedModule&#45;&gt;ClickOutsideDirective  -->
<g id="edge11" class="edge">
<title>SharedModule&#45;&gt;ClickOutsideDirective </title>
<path fill="none" stroke="#000000" stroke-dasharray="5,2" d="M809.5296,-175C922.2254,-175 1188.125,-175 1188.125,-175 1188.125,-175 1188.125,-205.9775 1188.125,-205.9775"/>
<polygon fill="#000000" stroke="#000000" points="1184.6251,-205.9774 1188.125,-215.9775 1191.6251,-205.9775 1184.6251,-205.9774"/>
</g>
<!-- FilterByMonthPipe  -->
<g id="node13" class="node">
<title>FilterByMonthPipe </title>
<polygon fill="#fb8072" stroke="#000000" points="1103.3898,-252 974.6102,-252 974.6102,-216 1103.3898,-216 1103.3898,-252"/>
<text text-anchor="middle" x="1039" y="-229.8" font-family="Times,serif" font-size="14.00" fill="#000000">FilterByMonthPipe </text>
</g>
<!-- SharedModule&#45;&gt;FilterByMonthPipe  -->
<g id="edge12" class="edge">
<title>SharedModule&#45;&gt;FilterByMonthPipe </title>
<path fill="none" stroke="#000000" stroke-dasharray="5,2" d="M809.4725,-179C883.6333,-179 1015.0185,-179 1015.0185,-179 1015.0185,-179 1015.0185,-205.9909 1015.0185,-205.9909"/>
<polygon fill="#000000" stroke="#000000" points="1011.5186,-205.9909 1015.0185,-215.9909 1018.5186,-205.991 1011.5186,-205.9909"/>
</g>
<!-- FilterByTypePipe  -->
<g id="node14" class="node">
<title>FilterByTypePipe </title>
<polygon fill="#fb8072" stroke="#000000" points="956.8213,-252 837.1787,-252 837.1787,-216 956.8213,-216 956.8213,-252"/>
<text text-anchor="middle" x="897" y="-229.8" font-family="Times,serif" font-size="14.00" fill="#000000">FilterByTypePipe </text>
</g>
<!-- SharedModule&#45;&gt;FilterByTypePipe  -->
<g id="edge13" class="edge">
<title>SharedModule&#45;&gt;FilterByTypePipe </title>
<path fill="none" stroke="#000000" stroke-dasharray="5,2" d="M809.2946,-183C840.6726,-183 875.4465,-183 875.4465,-183 875.4465,-183 875.4465,-205.8757 875.4465,-205.8757"/>
<polygon fill="#000000" stroke="#000000" points="871.9466,-205.8757 875.4465,-215.8757 878.9466,-205.8757 871.9466,-205.8757"/>
</g>
<!-- FilterByYearPipe  -->
<g id="node15" class="node">
<title>FilterByYearPipe </title>
<polygon fill="#fb8072" stroke="#000000" points="819.2507,-252 700.7493,-252 700.7493,-216 819.2507,-216 819.2507,-252"/>
<text text-anchor="middle" x="760" y="-229.8" font-family="Times,serif" font-size="14.00" fill="#000000">FilterByYearPipe </text>
</g>
<!-- SharedModule&#45;&gt;FilterByYearPipe  -->
<g id="edge14" class="edge">
<title>SharedModule&#45;&gt;FilterByYearPipe </title>
<path fill="none" stroke="#000000" stroke-dasharray="5,2" d="M760,-187.1061C760,-187.1061 760,-205.991 760,-205.991"/>
<polygon fill="#000000" stroke="#000000" points="756.5001,-205.9909 760,-215.991 763.5001,-205.991 756.5001,-205.9909"/>
</g>
<!-- FilterDatePipe  -->
<g id="node16" class="node">
<title>FilterDatePipe </title>
<polygon fill="#fb8072" stroke="#000000" points="682.6439,-252 581.3561,-252 581.3561,-216 682.6439,-216 682.6439,-252"/>
<text text-anchor="middle" x="632" y="-229.8" font-family="Times,serif" font-size="14.00" fill="#000000">FilterDatePipe </text>
</g>
<!-- SharedModule&#45;&gt;FilterDatePipe  -->
<g id="edge15" class="edge">
<title>SharedModule&#45;&gt;FilterDatePipe </title>
<path fill="none" stroke="#000000" stroke-dasharray="5,2" d="M710.6767,-183C670.0094,-183 618.976,-183 618.976,-183 618.976,-183 618.976,-205.8757 618.976,-205.8757"/>
<polygon fill="#000000" stroke="#000000" points="615.4761,-205.8757 618.976,-215.8757 622.4761,-205.8757 615.4761,-205.8757"/>
</g>
<!-- HeaderComponent  -->
<g id="node17" class="node">
<title>HeaderComponent </title>
<polygon fill="#fb8072" stroke="#000000" points="563.7436,-252 438.2564,-252 438.2564,-216 563.7436,-216 563.7436,-252"/>
<text text-anchor="middle" x="501" y="-229.8" font-family="Times,serif" font-size="14.00" fill="#000000">HeaderComponent </text>
</g>
<!-- SharedModule&#45;&gt;HeaderComponent  -->
<g id="edge16" class="edge">
<title>SharedModule&#45;&gt;HeaderComponent </title>
<path fill="none" stroke="#000000" stroke-dasharray="5,2" d="M710.6905,-179C631.7925,-179 485.9594,-179 485.9594,-179 485.9594,-179 485.9594,-205.9909 485.9594,-205.9909"/>
<polygon fill="#000000" stroke="#000000" points="482.4595,-205.9909 485.9594,-215.9909 489.4595,-205.991 482.4595,-205.9909"/>
</g>
<!-- LoadingSpinnerLoginComponent  -->
<g id="node18" class="node">
<title>LoadingSpinnerLoginComponent </title>
<polygon fill="#fb8072" stroke="#000000" points="420.4824,-252 211.5176,-252 211.5176,-216 420.4824,-216 420.4824,-252"/>
<text text-anchor="middle" x="316" y="-229.8" font-family="Times,serif" font-size="14.00" fill="#000000">LoadingSpinnerLoginComponent </text>
</g>
<!-- SharedModule&#45;&gt;LoadingSpinnerLoginComponent  -->
<g id="edge17" class="edge">
<title>SharedModule&#45;&gt;LoadingSpinnerLoginComponent </title>
<path fill="none" stroke="#000000" stroke-dasharray="5,2" d="M710.6495,-175C596.1995,-175 322.375,-175 322.375,-175 322.375,-175 322.375,-205.9775 322.375,-205.9775"/>
<polygon fill="#000000" stroke="#000000" points="318.8751,-205.9774 322.375,-215.9775 325.8751,-205.9775 318.8751,-205.9774"/>
</g>
<!-- ScrollTopBottomDirective  -->
<g id="node19" class="node">
<title>ScrollTopBottomDirective </title>
<polygon fill="#fb8072" stroke="#000000" points="193.5833,-252 24.4167,-252 24.4167,-216 193.5833,-216 193.5833,-252"/>
<text text-anchor="middle" x="109" y="-229.8" font-family="Times,serif" font-size="14.00" fill="#000000">ScrollTopBottomDirective </text>
</g>
<!-- SharedModule&#45;&gt;ScrollTopBottomDirective  -->
<g id="edge18" class="edge">
<title>SharedModule&#45;&gt;ScrollTopBottomDirective </title>
<path fill="none" stroke="#000000" stroke-dasharray="5,2" d="M710.6029,-171C560.0072,-171 116.875,-171 116.875,-171 116.875,-171 116.875,-205.7778 116.875,-205.7778"/>
<polygon fill="#000000" stroke="#000000" points="113.3751,-205.7778 116.875,-215.7778 120.3751,-205.7778 113.3751,-205.7778"/>
</g>
</g>
</svg>
