<?xml version="1.0" encoding="UTF-8" standalone="no"?>
<!DOCTYPE svg PUBLIC "-//W3C//DTD SVG 1.1//EN"
 "http://www.w3.org/Graphics/SVG/1.1/DTD/svg11.dtd">
<!-- Generated by graphviz version 2.40.1 (20161225.0304)
 -->
<!-- Title: dependencies Pages: 1 -->
<svg width="790pt" height="211pt"
 viewBox="0.00 0.00 790.00 211.00" xmlns="http://www.w3.org/2000/svg" xmlns:xlink="http://www.w3.org/1999/xlink">
<g id="graph0" class="graph" transform="scale(1 1) rotate(0) translate(4 207)">
<title>dependencies</title>
<polygon fill="#ffffff" stroke="transparent" points="-4,4 -4,-207 786,-207 786,4 -4,4"/>
<text text-anchor="start" x="370.0091" y="-42.4" font-family="sans-serif" font-weight="bold" font-size="14.00" fill="#000000">Legend</text>
<polygon fill="#ffffb3" stroke="transparent" points="157,-10 157,-30 177,-30 177,-10 157,-10"/>
<text text-anchor="start" x="180.629" y="-15.4" font-family="sans-serif" font-size="14.00" fill="#000000"> &#160;Declarations</text>
<polygon fill="#8dd3c7" stroke="transparent" points="270,-10 270,-30 290,-30 290,-10 270,-10"/>
<text text-anchor="start" x="293.7251" y="-15.4" font-family="sans-serif" font-size="14.00" fill="#000000"> &#160;Module</text>
<polygon fill="#80b1d3" stroke="transparent" points="356,-10 356,-30 376,-30 376,-10 356,-10"/>
<text text-anchor="start" x="379.7812" y="-15.4" font-family="sans-serif" font-size="14.00" fill="#000000"> &#160;Bootstrap</text>
<polygon fill="#fdb462" stroke="transparent" points="453,-10 453,-30 473,-30 473,-10 453,-10"/>
<text text-anchor="start" x="476.6732" y="-15.4" font-family="sans-serif" font-size="14.00" fill="#000000"> &#160;Providers</text>
<polygon fill="#fb8072" stroke="transparent" points="549,-10 549,-30 569,-30 569,-10 549,-10"/>
<text text-anchor="start" x="572.7258" y="-15.4" font-family="sans-serif" font-size="14.00" fill="#000000"> &#160;Exports</text>
<g id="clust1" class="cluster">
<title>cluster_AddressModule</title>
<polygon fill="none" stroke="#000000" stroke-dasharray="1,5" points="8,-70 8,-195 774,-195 774,-70 8,-70"/>
</g>
<g id="clust2" class="cluster">
<title>cluster_AddressModule_declarations</title>
<polygon fill="none" stroke="#000000" points="138,-78 138,-130 766,-130 766,-78 138,-78"/>
</g>
<g id="clust7" class="cluster">
<title>cluster_AddressModule_imports</title>
<polygon fill="none" stroke="#000000" points="16,-78 16,-130 130,-130 130,-78 16,-78"/>
</g>
<!-- AddressBookComponent -->
<g id="node1" class="node">
<title>AddressBookComponent</title>
<polygon fill="#ffffb3" stroke="#000000" points="757.5407,-122 600.4593,-122 600.4593,-86 757.5407,-86 757.5407,-122"/>
<text text-anchor="middle" x="679" y="-99.8" font-family="Times,serif" font-size="14.00" fill="#000000">AddressBookComponent</text>
</g>
<!-- AddressModule -->
<g id="node5" class="node">
<title>AddressModule</title>
<polygon fill="#8dd3c7" stroke="#000000" points="437.9216,-187 434.9216,-191 413.9216,-191 410.9216,-187 332.0784,-187 332.0784,-151 437.9216,-151 437.9216,-187"/>
<text text-anchor="middle" x="385" y="-164.8" font-family="Times,serif" font-size="14.00" fill="#000000">AddressModule</text>
</g>
<!-- AddressBookComponent&#45;&gt;AddressModule -->
<g id="edge1" class="edge">
<title>AddressBookComponent&#45;&gt;AddressModule</title>
<path fill="none" stroke="#000000" d="M679,-122.2843C679,-143.3211 679,-175 679,-175 679,-175 447.9009,-175 447.9009,-175"/>
<polygon fill="#000000" stroke="#000000" points="447.9009,-171.5001 437.9009,-175 447.9008,-178.5001 447.9009,-171.5001"/>
</g>
<!-- FilterByCityPipe -->
<g id="node2" class="node">
<title>FilterByCityPipe</title>
<polygon fill="#ffffb3" stroke="#000000" points="581.6723,-122 470.3277,-122 470.3277,-86 581.6723,-86 581.6723,-122"/>
<text text-anchor="middle" x="526" y="-99.8" font-family="Times,serif" font-size="14.00" fill="#000000">FilterByCityPipe</text>
</g>
<!-- FilterByCityPipe&#45;&gt;AddressModule -->
<g id="edge2" class="edge">
<title>FilterByCityPipe&#45;&gt;AddressModule</title>
<path fill="none" stroke="#000000" d="M526,-122.0225C526,-139.3734 526,-163 526,-163 526,-163 447.9044,-163 447.9044,-163"/>
<polygon fill="#000000" stroke="#000000" points="447.9044,-159.5001 437.9044,-163 447.9043,-166.5001 447.9044,-159.5001"/>
</g>
<!-- FilterByCountryPipe -->
<g id="node3" class="node">
<title>FilterByCountryPipe</title>
<polygon fill="#ffffb3" stroke="#000000" points="451.9425,-122 318.0575,-122 318.0575,-86 451.9425,-86 451.9425,-122"/>
<text text-anchor="middle" x="385" y="-99.8" font-family="Times,serif" font-size="14.00" fill="#000000">FilterByCountryPipe</text>
</g>
<!-- FilterByCountryPipe&#45;&gt;AddressModule -->
<g id="edge3" class="edge">
<title>FilterByCountryPipe&#45;&gt;AddressModule</title>
<path fill="none" stroke="#000000" d="M385,-122.1061C385,-122.1061 385,-140.991 385,-140.991"/>
<polygon fill="#000000" stroke="#000000" points="381.5001,-140.9909 385,-150.991 388.5001,-140.991 381.5001,-140.9909"/>
</g>
<!-- NewAddressComponent -->
<g id="node4" class="node">
<title>NewAddressComponent</title>
<polygon fill="#ffffb3" stroke="#000000" points="299.6316,-122 146.3684,-122 146.3684,-86 299.6316,-86 299.6316,-122"/>
<text text-anchor="middle" x="223" y="-99.8" font-family="Times,serif" font-size="14.00" fill="#000000">NewAddressComponent</text>
</g>
<!-- NewAddressComponent&#45;&gt;AddressModule -->
<g id="edge4" class="edge">
<title>NewAddressComponent&#45;&gt;AddressModule</title>
<path fill="none" stroke="#000000" d="M223,-122.0225C223,-139.3734 223,-163 223,-163 223,-163 321.9551,-163 321.9551,-163"/>
<polygon fill="#000000" stroke="#000000" points="321.9552,-166.5001 331.9551,-163 321.9551,-159.5001 321.9552,-166.5001"/>
</g>
<!-- SharedModule -->
<g id="node6" class="node">
<title>SharedModule</title>
<polygon fill="#8dd3c7" stroke="#000000" points="122.4231,-122 119.4231,-126 98.4231,-126 95.4231,-122 23.5769,-122 23.5769,-86 122.4231,-86 122.4231,-122"/>
<text text-anchor="middle" x="73" y="-99.8" font-family="Times,serif" font-size="14.00" fill="#000000">SharedModule</text>
</g>
<!-- SharedModule&#45;&gt;AddressModule -->
<g id="edge5" class="edge">
<title>SharedModule&#45;&gt;AddressModule</title>
<path fill="none" stroke="#000000" d="M73,-122.2843C73,-143.3211 73,-175 73,-175 73,-175 322.0735,-175 322.0735,-175"/>
<polygon fill="#000000" stroke="#000000" points="322.0735,-178.5001 332.0735,-175 322.0734,-171.5001 322.0735,-178.5001"/>
</g>
</g>
</svg>
