<?xml version="1.0" encoding="UTF-8" standalone="no"?>
<!DOCTYPE svg PUBLIC "-//W3C//DTD SVG 1.1//EN"
 "http://www.w3.org/Graphics/SVG/1.1/DTD/svg11.dtd">
<!-- Generated by graphviz version 2.40.1 (20161225.0304)
 -->
<!-- Title: dependencies Pages: 1 -->
<svg width="834pt" height="211pt"
 viewBox="0.00 0.00 834.00 211.00" xmlns="http://www.w3.org/2000/svg" xmlns:xlink="http://www.w3.org/1999/xlink">
<g id="graph0" class="graph" transform="scale(1 1) rotate(0) translate(4 207)">
<title>dependencies</title>
<polygon fill="#ffffff" stroke="transparent" points="-4,4 -4,-207 830,-207 830,4 -4,4"/>
<text text-anchor="start" x="392.0091" y="-42.4" font-family="sans-serif" font-weight="bold" font-size="14.00" fill="#000000">Legend</text>
<polygon fill="#ffffb3" stroke="transparent" points="179,-10 179,-30 199,-30 199,-10 179,-10"/>
<text text-anchor="start" x="202.629" y="-15.4" font-family="sans-serif" font-size="14.00" fill="#000000"> &#160;Declarations</text>
<polygon fill="#8dd3c7" stroke="transparent" points="292,-10 292,-30 312,-30 312,-10 292,-10"/>
<text text-anchor="start" x="315.7251" y="-15.4" font-family="sans-serif" font-size="14.00" fill="#000000"> &#160;Module</text>
<polygon fill="#80b1d3" stroke="transparent" points="378,-10 378,-30 398,-30 398,-10 378,-10"/>
<text text-anchor="start" x="401.7812" y="-15.4" font-family="sans-serif" font-size="14.00" fill="#000000"> &#160;Bootstrap</text>
<polygon fill="#fdb462" stroke="transparent" points="475,-10 475,-30 495,-30 495,-10 475,-10"/>
<text text-anchor="start" x="498.6732" y="-15.4" font-family="sans-serif" font-size="14.00" fill="#000000"> &#160;Providers</text>
<polygon fill="#fb8072" stroke="transparent" points="571,-10 571,-30 591,-30 591,-10 571,-10"/>
<text text-anchor="start" x="594.7258" y="-15.4" font-family="sans-serif" font-size="14.00" fill="#000000"> &#160;Exports</text>
<g id="clust1" class="cluster">
<title>cluster_BalanceModule</title>
<polygon fill="none" stroke="#000000" stroke-dasharray="1,5" points="8,-70 8,-195 818,-195 818,-70 8,-70"/>
</g>
<g id="clust2" class="cluster">
<title>cluster_BalanceModule_declarations</title>
<polygon fill="none" stroke="#000000" points="138,-78 138,-130 810,-130 810,-78 138,-78"/>
</g>
<g id="clust7" class="cluster">
<title>cluster_BalanceModule_imports</title>
<polygon fill="none" stroke="#000000" points="16,-78 16,-130 130,-130 130,-78 16,-78"/>
</g>
<!-- BalanceComponent -->
<g id="node1" class="node">
<title>BalanceComponent</title>
<polygon fill="#ffffb3" stroke="#000000" points="802.4187,-122 675.5813,-122 675.5813,-86 802.4187,-86 802.4187,-122"/>
<text text-anchor="middle" x="739" y="-99.8" font-family="Times,serif" font-size="14.00" fill="#000000">BalanceComponent</text>
</g>
<!-- BalanceModule -->
<g id="node5" class="node">
<title>BalanceModule</title>
<polygon fill="#8dd3c7" stroke="#000000" points="456.136,-187 453.136,-191 432.136,-191 429.136,-187 351.864,-187 351.864,-151 456.136,-151 456.136,-187"/>
<text text-anchor="middle" x="404" y="-164.8" font-family="Times,serif" font-size="14.00" fill="#000000">BalanceModule</text>
</g>
<!-- BalanceComponent&#45;&gt;BalanceModule -->
<g id="edge1" class="edge">
<title>BalanceComponent&#45;&gt;BalanceModule</title>
<path fill="none" stroke="#000000" d="M739,-122.2843C739,-143.3211 739,-175 739,-175 739,-175 466.3438,-175 466.3438,-175"/>
<polygon fill="#000000" stroke="#000000" points="466.3438,-171.5001 456.3438,-175 466.3437,-178.5001 466.3438,-171.5001"/>
</g>
<!-- BalanceTableStyleDirective -->
<g id="node2" class="node">
<title>BalanceTableStyleDirective</title>
<polygon fill="#ffffb3" stroke="#000000" points="657.8193,-122 484.1807,-122 484.1807,-86 657.8193,-86 657.8193,-122"/>
<text text-anchor="middle" x="571" y="-99.8" font-family="Times,serif" font-size="14.00" fill="#000000">BalanceTableStyleDirective</text>
</g>
<!-- BalanceTableStyleDirective&#45;&gt;BalanceModule -->
<g id="edge2" class="edge">
<title>BalanceTableStyleDirective&#45;&gt;BalanceModule</title>
<path fill="none" stroke="#000000" d="M571,-122.0225C571,-139.3734 571,-163 571,-163 571,-163 466.3816,-163 466.3816,-163"/>
<polygon fill="#000000" stroke="#000000" points="466.3817,-159.5001 456.3816,-163 466.3816,-166.5001 466.3817,-159.5001"/>
</g>
<!-- DisplayInEuroPipe -->
<g id="node3" class="node">
<title>DisplayInEuroPipe</title>
<polygon fill="#ffffb3" stroke="#000000" points="465.809,-122 342.191,-122 342.191,-86 465.809,-86 465.809,-122"/>
<text text-anchor="middle" x="404" y="-99.8" font-family="Times,serif" font-size="14.00" fill="#000000">DisplayInEuroPipe</text>
</g>
<!-- DisplayInEuroPipe&#45;&gt;BalanceModule -->
<g id="edge3" class="edge">
<title>DisplayInEuroPipe&#45;&gt;BalanceModule</title>
<path fill="none" stroke="#000000" d="M404,-122.1061C404,-122.1061 404,-140.991 404,-140.991"/>
<polygon fill="#000000" stroke="#000000" points="400.5001,-140.9909 404,-150.991 407.5001,-140.991 400.5001,-140.9909"/>
</g>
<!-- NewBalanceItemComponent -->
<g id="node4" class="node">
<title>NewBalanceItemComponent</title>
<polygon fill="#ffffb3" stroke="#000000" points="324.0029,-122 145.9971,-122 145.9971,-86 324.0029,-86 324.0029,-122"/>
<text text-anchor="middle" x="235" y="-99.8" font-family="Times,serif" font-size="14.00" fill="#000000">NewBalanceItemComponent</text>
</g>
<!-- NewBalanceItemComponent&#45;&gt;BalanceModule -->
<g id="edge4" class="edge">
<title>NewBalanceItemComponent&#45;&gt;BalanceModule</title>
<path fill="none" stroke="#000000" d="M235,-122.0225C235,-139.3734 235,-163 235,-163 235,-163 341.4537,-163 341.4537,-163"/>
<polygon fill="#000000" stroke="#000000" points="341.4538,-166.5001 351.4537,-163 341.4537,-159.5001 341.4538,-166.5001"/>
</g>
<!-- SharedModule -->
<g id="node6" class="node">
<title>SharedModule</title>
<polygon fill="#8dd3c7" stroke="#000000" points="122.4231,-122 119.4231,-126 98.4231,-126 95.4231,-122 23.5769,-122 23.5769,-86 122.4231,-86 122.4231,-122"/>
<text text-anchor="middle" x="73" y="-99.8" font-family="Times,serif" font-size="14.00" fill="#000000">SharedModule</text>
</g>
<!-- SharedModule&#45;&gt;BalanceModule -->
<g id="edge5" class="edge">
<title>SharedModule&#45;&gt;BalanceModule</title>
<path fill="none" stroke="#000000" d="M73,-122.2843C73,-143.3211 73,-175 73,-175 73,-175 341.5521,-175 341.5521,-175"/>
<polygon fill="#000000" stroke="#000000" points="341.5521,-178.5001 351.5521,-175 341.552,-171.5001 341.5521,-178.5001"/>
</g>
</g>
</svg>
